<?xml version="1.0" encoding="UTF-8"?> <svg xmlns="http://www.w3.org/2000/svg" xmlns:xlink="http://www.w3.org/1999/xlink" width="188px" height="26px" viewBox="0 0 188 26"><!-- Generator: Sketch 43.1 (39012) - http://www.bohemiancoding.com/sketch --><title>logo-01</title><desc>Created with Sketch.</desc><defs></defs><g id="Page-1" stroke="none" stroke-width="1" fill="none" fill-rule="evenodd"><g id="logo-01" transform="translate(0.000000, -1.000000)" fill-rule="nonzero" fill="#E41B47"><path d="M96.13,4.7 C95.0366305,3.52855839 93.7027951,2.60749556 92.22,2 C90.4855153,1.30375378 88.6286562,0.963669694 86.76,1 L77.51,1 L77.51,14.75 L83.19,14.75 L83.19,6.11 L86.76,6.11 C87.7195605,6.09562079 88.6720767,6.27591851 89.56,6.64 C90.3659276,6.98095534 91.0814619,7.50476754 91.65,8.17 C92.2533463,8.85465516 92.7124907,9.65390653 93,10.52 C93.299221,11.4916146 93.4476137,12.503383 93.44,13.52 C93.4492094,14.5367268 93.300781,15.5487385 93,16.52 C92.7240366,17.3825584 92.2899825,18.1862367 91.72,18.89 C91.1584367,19.5665064 90.4506606,20.1067413 89.65,20.47 C88.7536681,20.855665 87.7856407,21.0465437 86.81,21.03 L83.19,21.03 L83.19,19.1 L77.51,19.1 L77.51,26.1 L86.76,26.1 C88.5209464,26.1227981 90.2707509,25.8175997 91.92,25.2 C93.4175213,24.6401489 94.7804079,23.7713087 95.92,22.65 C97.0374368,21.5111572 97.8998529,20.1476535 98.45,18.65 C99.0595162,16.9887079 99.3578261,15.2293578 99.33,13.46 C99.3427148,11.8037678 99.0756257,10.1572817 98.54,8.59 C98.0126843,7.14141769 97.19226,5.81716438 96.13,4.7 L96.13,4.7 Z" id="Shape"></path><path d="M109.81,8.4 C108.74207,9.16043595 107.879613,10.1740811 107.3,11.35 L107.3,7.6 L102.1,7.6 L102.1,26.19 L107.77,26.19 L107.77,15 C108.343844,14.1097117 109.199347,13.4372794 110.2,13.09 C111.384337,12.6508238 112.636863,12.4240151 113.9,12.42 L113.9,7.35 C113.607204,7.32489261 113.312796,7.32489261 113.02,7.35 C111.871534,7.38541928 110.757389,7.74985928 109.81,8.4 Z" id="Shape"></path><path d="M132.39,10.1 C131.507704,9.1948623 130.44926,8.48015721 129.28,8 C126.55938,6.9597451 123.55062,6.9597451 120.83,8 C119.645155,8.48121785 118.575183,9.20702722 117.69,10.13 C116.835194,11.0308618 116.17184,12.0956289 115.74,13.26 C115.286604,14.478627 115.059547,15.7698038 115.07,17.07 C115.064926,18.3014588 115.292235,19.5228195 115.74,20.67 C116.195504,21.7957157 116.876072,22.8165669 117.74,23.67 C118.636047,24.5722615 119.708323,25.2803036 120.89,25.75 C122.227998,26.271429 123.654122,26.5294896 125.09,26.51 C127.024865,26.5645231 128.937609,26.0872017 130.62,25.13 C132.074909,24.2895828 133.255688,23.0462922 134.02,21.55 L129.2,20.2 C128.916664,20.9219718 128.364733,21.5061586 127.66,21.83 C126.923913,22.2212082 126.103582,22.4271491 125.27,22.43 C124.254608,22.4337395 123.270346,22.0796887 122.49,21.43 C121.644167,20.7216599 121.144871,19.6829783 121.12,18.58 L134.87,18.58 C134.922306,18.3059506 134.955718,18.0286307 134.97,17.75 L134.97,16.75 C134.974475,15.5032611 134.750792,14.266225 134.31,13.1 C133.880425,11.9799618 133.227137,10.9591984 132.39,10.1 L132.39,10.1 Z M120.99,15.1 C121.052315,14.051562 121.497078,13.0624099 122.24,12.32 C122.985837,11.6319696 123.976427,11.2717553 124.99,11.32 C125.995214,11.2869047 126.974002,11.6454354 127.72,12.32 C128.474731,13.0643709 128.927143,14.0618146 128.99,15.12 L120.99,15.1 Z" id="Shape"></path><path d="M154,19.79 L154,15 C154.145735,12.8160498 153.301101,10.6824314 151.7,9.19 C149.839973,7.75693304 147.523665,7.04640917 145.18,7.19 C143.751447,7.18087971 142.329398,7.38306674 140.96,7.79 C139.606671,8.20757557 138.320238,8.8171162 137.14,9.6 L138.8,13.14 C139.706054,12.5139993 140.682806,11.9970925 141.71,11.6 C142.638601,11.2587292 143.620682,11.0860185 144.61,11.09 C147.09,11.09 148.33,12.1633333 148.33,14.31 L148.33,15.16 C147.722407,14.8814058 147.079912,14.6863026 146.42,14.58 C145.670646,14.4470153 144.911062,14.3800916 144.15,14.38 C143.059589,14.3697425 141.973923,14.5248377 140.93,14.84 C140.022996,15.1194517 139.17064,15.5523945 138.41,16.12 C137.719561,16.6368038 137.155396,17.3035443 136.76,18.07 C136.365491,18.8470743 136.166408,19.7086234 136.18,20.58 C136.168622,21.3941067 136.339458,22.2004525 136.68,22.94 C137.000754,23.6475024 137.455844,24.2859865 138.02,24.82 C138.600941,25.3578148 139.279955,25.7788035 140.02,26.06 C140.84398,26.3572135 141.714077,26.5061796 142.59,26.5 C143.849759,26.5038804 145.09293,26.2127795 146.22,25.65 C147.394251,25.0735775 148.420585,24.2354054 149.22,23.2 L149.32,24.05 C149.415393,24.7376261 149.773888,25.361408 150.32,25.79 C151.027635,26.2368801 151.853607,26.4599275 152.69,26.43 C153.05,26.43 153.46,26.41 153.92,26.37 C154.425104,26.331437 154.926547,26.254549 155.42,26.14 L155.42,21.35 C155.00069,21.3912558 154.586877,21.2298615 154.306222,20.915607 C154.025567,20.6013525 153.911793,20.1719984 154,19.76 L154,19.79 Z M148.33,19.93 C148.284497,20.4814348 147.985147,20.9803519 147.52,21.28 C147.098893,21.6529769 146.610026,21.9415441 146.08,22.13 C145.506199,22.3377668 144.900252,22.4427074 144.29,22.44 C143.566743,22.4717485 142.8564,22.2408872 142.29,21.79 C141.783738,21.381106 141.49565,20.7606067 141.51,20.11 C141.504197,19.3626921 141.8816,18.6644958 142.51,18.26 C143.273224,17.7655244 144.171437,17.520875 145.08,17.56 C146.179373,17.578135 147.267876,17.7809615 148.3,18.16 L148.33,19.93 Z" id="Shape"></path><path d="M187.3,11.85 C187.176133,11.0471898 186.904909,10.274199 186.5,9.57 C186.098057,8.86635314 185.518841,8.280242 184.82,7.87 C183.957269,7.39827651 182.982465,7.17013086 182,7.21 C180.608267,7.17656272 179.231168,7.5001811 178,8.15 C176.85067,8.77103153 175.892852,9.6942704 175.23,10.82 C175.116865,10.3271364 174.920735,9.85710225 174.65,9.43 C174.387551,8.98748173 174.049019,8.59478553 173.65,8.27 C173.202111,7.92014049 172.693635,7.65573317 172.15,7.49 C171.500552,7.29964875 170.826753,7.20531691 170.15,7.21 C168.715781,7.17464748 167.293597,7.47964604 166,8.1 C164.836807,8.67113121 163.864197,9.56732265 163.2,10.68 L163.2,7.57 L158.1,7.57 L158.1,26.16 L163.77,26.16 L163.77,15.5 C164.056732,14.5708668 164.601135,13.7421252 165.34,13.11 C165.948753,12.5544749 166.736257,12.2352163 167.56,12.21 C168.24371,12.1850803 168.896698,12.4947832 169.31,13.04 C169.815687,13.8340379 170.047494,14.7718049 169.97,15.71 L169.97,26.16 L175.63,26.16 L175.63,15.5 C175.928673,14.5797215 176.475386,13.7596511 177.21,13.13 C177.811803,12.5609486 178.602089,12.2334431 179.43,12.21 C180.11371,12.1850803 180.766698,12.4947832 181.18,13.04 C181.682187,13.8352386 181.910461,14.7729182 181.83,15.71 L181.83,26.16 L187.5,26.16 L187.5,14.26 C187.496117,13.4526876 187.429247,12.6469088 187.3,11.85 L187.3,11.85 Z" id="Shape"></path><path d="M28.66,9.18 C28.2578799,8.48317118 27.6870584,7.89859499 27,7.48 C26.1274594,7.00640452 25.1416014,6.7815597 24.15,6.83 C22.7597256,6.79918388 21.3840821,7.119021 20.15,7.76 C18.9977578,8.37803149 18.0416464,9.30642958 17.39,10.44 C17.2669257,9.92982416 17.0608464,9.44334186 16.78,9 C16.5151125,8.56213407 16.1768419,8.17312292 15.78,7.85 C15.3271852,7.50206988 14.8158039,7.23791268 14.27,7.07 C13.6217132,6.874308 12.9471029,6.77986257 12.27,6.79 C10.8500293,6.75784361 9.44231707,7.05925159 8.16,7.67 C6.99063956,8.25553894 6.01754014,9.16955732 5.36,10.3 L5.36,7.18 L0.3,7.18 L0.3,25.78 L6,25.78 L6,15.12 C6.28678397,14.1855852 6.83504412,13.352785 7.58,12.72 C8.18472138,12.164398 8.96917143,11.8449387 9.79,11.82 C10.4730102,11.7984542 11.1245278,12.1074597 11.54,12.65 C12.0457696,13.4477128 12.2774924,14.388648 12.2,15.33 L12.2,25.78 L17.87,25.78 L17.87,15.12 C18.1670365,14.1985946 18.7098659,13.3757066 19.44,12.74 C20.0443493,12.1748878 20.8330755,11.8480283 21.66,11.82 C22.3426634,11.8001115 22.9934638,12.1087768 23.41,12.65 C23.8913506,13.4560081 24.0983699,14.3963669 24,15.33 L24,25.78 L29.7,25.78 L29.7,13.88 C29.6997917,13.0729339 29.6362634,12.2671281 29.51,11.47 C29.3707166,10.6606711 29.0825076,9.88420198 28.66,9.18 L28.66,9.18 Z" id="Shape"></path><path d="M49.42,9.71 C48.5353685,8.80766189 47.4775361,8.09336993 46.31,7.61 C43.5893804,6.5697451 40.5806196,6.5697451 37.86,7.61 C36.6757656,8.08774629 35.6057585,8.81017143 34.72,9.73 C33.8472002,10.6301334 33.1667242,11.6984809 32.72,12.87 C32.2673689,14.0853639 32.0403167,15.3731228 32.05,16.67 C32.0429935,17.9016323 32.2703692,19.1233529 32.72,20.27 C33.1739954,21.3965125 33.8547559,22.4176532 34.72,23.27 C35.6240638,24.1718883 36.7027631,24.8796784 37.89,25.35 C39.2269517,25.8751219 40.6538073,26.1333148 42.09,26.11 C44.0248645,26.1645231 45.9376093,25.6872017 47.62,24.73 C49.0696668,23.8892745 50.2439072,22.6455524 51,21.15 L46.2,19.81 C45.9097198,20.5275391 45.3599138,21.1094767 44.66,21.44 C43.9239133,21.8312082 43.1035822,22.0371491 42.27,22.04 C41.2546076,22.0437395 40.2703463,21.6896887 39.49,21.04 C38.6415701,20.3293792 38.1420066,19.2864949 38.12,18.18 L51.87,18.18 C51.9185966,17.9053866 51.9519808,17.6282975 51.97,17.35 L51.97,16.35 C51.9753794,15.1031817 51.7516667,13.8659825 51.31,12.7 C50.887135,11.5865491 50.2443559,10.5696657 49.42,9.71 L49.42,9.71 Z M38.02,14.71 C38.1052173,13.6816828 38.5599133,12.7190062 39.3,12 C40.033414,11.3244728 41.0034957,10.9651833 42,11 C43.0057228,10.9637153 43.9856738,11.3226718 44.73,12 C45.4751706,12.7306661 45.9269529,13.708935 46,14.75 L38.02,14.71 Z" id="Shape"></path><path d="M67.3,19.13 C66.9474532,19.7464822 66.4540041,20.2707718 65.86,20.66 C65.1974043,21.105213 64.4182636,21.3452162 63.62,21.35 C62.401615,21.3886046 61.2265647,20.8959593 60.4,20 C59.5564434,19.0573832 59.1118662,17.8240401 59.16,16.56 C59.1563144,15.9211287 59.2576654,15.2859957 59.46,14.68 C59.6489623,14.1097599 59.9441587,13.5804422 60.33,13.12 C60.6993721,12.6774313 61.1510374,12.3106655 61.66,12.04 C62.1774944,11.7665503 62.7547167,11.6256806 63.34,11.63 C64.238972,11.6482209 65.1055861,11.9687977 65.8,12.54 C66.5499162,13.1042725 67.1281262,13.8659862 67.47,14.74 L73.08,14.74 L73.08,1 L67.48,1 L67.48,10.22 C66.9032355,9.17894292 66.0433789,8.32255356 65,7.75 C63.9345439,7.13200121 62.7216111,6.8140815 61.49,6.83 C60.3440254,6.81487068 59.2104304,7.0683028 58.18,7.57 C57.1871829,8.05427567 56.3027362,8.73461927 55.58,9.57 C54.824345,10.4729201 54.2474163,11.5113918 53.88,12.63 C53.4738507,13.8519638 53.271153,15.1323376 53.28,16.42 C53.2842365,17.7364058 53.5282184,19.0410312 54,20.27 C54.4235546,21.4031665 55.0542924,22.4476142 55.86,23.35 C56.6408615,24.2033615 57.591084,24.8845246 58.65,25.35 C59.758815,25.8374813 60.9588265,26.0829382 62.17,26.07 C63.4144447,26.0797456 64.6427551,25.7881077 65.75,25.22 C66.4295457,24.8785547 67.0398675,24.414032 67.55,23.85 L67.55,26.11 L73.15,26.11 L73.15,19.11 L67.3,19.13 Z" id="Shape"></path></g></g></svg> 