<?xml version="1.0" encoding="UTF-8" standalone="no"?>
<!DOCTYPE svg PUBLIC "-//W3C//DTD SVG 1.1//EN"
 "http://www.w3.org/Graphics/SVG/1.1/DTD/svg11.dtd">
<!-- Generated by graphviz version 12.1.1 (20240910.0053)
 -->
<!-- Title: INFRA Pages: 1 -->
<svg width="1813pt" height="620pt"
 viewBox="0.00 0.00 1813.38 620.00" xmlns="http://www.w3.org/2000/svg" xmlns:xlink="http://www.w3.org/1999/xlink">
<g id="graph0" class="graph" transform="scale(1 1) rotate(0) translate(4 616)">
<title>INFRA</title>
<polygon fill="white" stroke="none" points="-4,4 -4,-616 1809.38,-616 1809.38,4 -4,4"/>
<!-- ApplicationVpc -->
<g id="node1" class="node">
<title>ApplicationVpc</title>
<path fill="#e6e6e6" stroke="black" stroke-width="2" d="M347.22,-72C347.22,-72 242.43,-72 242.43,-72 236.43,-72 230.43,-66 230.43,-60 230.43,-60 230.43,-12 230.43,-12 230.43,-6 236.43,0 242.43,0 242.43,0 347.22,0 347.22,0 353.22,0 359.22,-6 359.22,-12 359.22,-12 359.22,-60 359.22,-60 359.22,-66 353.22,-72 347.22,-72"/>
<text text-anchor="middle" x="294.82" y="-40.2" font-family="Arial" font-size="14.00">ApplicationVpc</text>
<text text-anchor="middle" x="294.82" y="-23.4" font-family="Arial" font-size="14.00">(AWS::EC2::VPC)</text>
</g>
<!-- AlbSecurityGroup -->
<g id="node2" class="node">
<title>AlbSecurityGroup</title>
<path fill="#e6e6e6" stroke="black" stroke-width="2" d="M625.57,-180C625.57,-180 460.08,-180 460.08,-180 454.08,-180 448.08,-174 448.08,-168 448.08,-168 448.08,-120 448.08,-120 448.08,-114 454.08,-108 460.08,-108 460.08,-108 625.57,-108 625.57,-108 631.57,-108 637.57,-114 637.57,-120 637.57,-120 637.57,-168 637.57,-168 637.57,-174 631.57,-180 625.57,-180"/>
<text text-anchor="middle" x="542.82" y="-148.2" font-family="Arial" font-size="14.00">AlbSecurityGroup</text>
<text text-anchor="middle" x="542.82" y="-131.4" font-family="Arial" font-size="14.00">(AWS::EC2::SecurityGroup)</text>
</g>
<!-- AlbSecurityGroup&#45;&gt;ApplicationVpc -->
<g id="edge1" class="edge">
<title>AlbSecurityGroup&#45;&gt;ApplicationVpc</title>
<path fill="none" stroke="black" d="M459.9,-107.56C430.8,-95.12 398.31,-81.23 369.89,-69.09"/>
<polygon fill="black" stroke="black" points="371.59,-66 361.02,-65.29 368.83,-72.44 371.59,-66"/>
</g>
<!-- EcsSecurityGroup -->
<g id="node3" class="node">
<title>EcsSecurityGroup</title>
<path fill="#e6e6e6" stroke="black" stroke-width="2" d="M322.57,-288C322.57,-288 157.08,-288 157.08,-288 151.08,-288 145.08,-282 145.08,-276 145.08,-276 145.08,-228 145.08,-228 145.08,-222 151.08,-216 157.08,-216 157.08,-216 322.57,-216 322.57,-216 328.57,-216 334.57,-222 334.57,-228 334.57,-228 334.57,-276 334.57,-276 334.57,-282 328.57,-288 322.57,-288"/>
<text text-anchor="middle" x="239.82" y="-256.2" font-family="Arial" font-size="14.00">EcsSecurityGroup</text>
<text text-anchor="middle" x="239.82" y="-239.4" font-family="Arial" font-size="14.00">(AWS::EC2::SecurityGroup)</text>
</g>
<!-- EcsSecurityGroup&#45;&gt;ApplicationVpc -->
<g id="edge2" class="edge">
<title>EcsSecurityGroup&#45;&gt;ApplicationVpc</title>
<path fill="none" stroke="black" d="M248.12,-215.65C255,-186.66 265.2,-144.58 274.82,-108 276.93,-100 279.25,-91.51 281.53,-83.29"/>
<polygon fill="black" stroke="black" points="284.87,-84.36 284.2,-73.78 278.13,-82.47 284.87,-84.36"/>
</g>
<!-- EcsSecurityGroup&#45;&gt;AlbSecurityGroup -->
<g id="edge3" class="edge">
<title>EcsSecurityGroup&#45;&gt;AlbSecurityGroup</title>
<path fill="none" stroke="black" d="M334.86,-217.75C367.28,-206.41 403.72,-193.66 436.94,-182.04"/>
<polygon fill="black" stroke="black" points="437.89,-185.42 446.17,-178.81 435.58,-178.81 437.89,-185.42"/>
</g>
<!-- EfsSecurityGroup -->
<g id="node4" class="node">
<title>EfsSecurityGroup</title>
<path fill="#e6e6e6" stroke="black" stroke-width="2" d="M271.57,-396C271.57,-396 106.08,-396 106.08,-396 100.08,-396 94.08,-390 94.08,-384 94.08,-384 94.08,-336 94.08,-336 94.08,-330 100.08,-324 106.08,-324 106.08,-324 271.57,-324 271.57,-324 277.57,-324 283.57,-330 283.57,-336 283.57,-336 283.57,-384 283.57,-384 283.57,-390 277.57,-396 271.57,-396"/>
<text text-anchor="middle" x="188.82" y="-364.2" font-family="Arial" font-size="14.00">EfsSecurityGroup</text>
<text text-anchor="middle" x="188.82" y="-347.4" font-family="Arial" font-size="14.00">(AWS::EC2::SecurityGroup)</text>
</g>
<!-- EfsSecurityGroup&#45;&gt;ApplicationVpc -->
<g id="edge4" class="edge">
<title>EfsSecurityGroup&#45;&gt;ApplicationVpc</title>
<path fill="none" stroke="black" d="M155.54,-323.63C147.51,-312.97 140.04,-300.7 135.82,-288 125.74,-257.63 124.46,-245.91 135.82,-216 156.69,-161.09 202.97,-112.26 240.24,-79.53"/>
<polygon fill="black" stroke="black" points="242.1,-82.55 247.39,-73.37 237.53,-77.25 242.1,-82.55"/>
</g>
<!-- EfsSecurityGroup&#45;&gt;EcsSecurityGroup -->
<g id="edge5" class="edge">
<title>EfsSecurityGroup&#45;&gt;EcsSecurityGroup</title>
<path fill="none" stroke="black" d="M205.81,-323.7C209.72,-315.57 213.94,-306.8 218.02,-298.31"/>
<polygon fill="black" stroke="black" points="221.08,-300.03 222.26,-289.51 214.77,-297 221.08,-300.03"/>
</g>
<!-- MedDreamCluster -->
<g id="node5" class="node">
<title>MedDreamCluster</title>
<path fill="#b7e0ff" stroke="black" stroke-width="2" d="M417.78,-180C417.78,-180 295.87,-180 295.87,-180 289.87,-180 283.87,-174 283.87,-168 283.87,-168 283.87,-120 283.87,-120 283.87,-114 289.87,-108 295.87,-108 295.87,-108 417.78,-108 417.78,-108 423.78,-108 429.78,-114 429.78,-120 429.78,-120 429.78,-168 429.78,-168 429.78,-174 423.78,-180 417.78,-180"/>
<text text-anchor="middle" x="356.82" y="-148.2" font-family="Arial" font-size="14.00">MedDreamCluster</text>
<text text-anchor="middle" x="356.82" y="-131.4" font-family="Arial" font-size="14.00">(AWS::ECS::Cluster)</text>
</g>
<!-- MedDreamCluster&#45;&gt;ApplicationVpc -->
<g id="edge6" class="edge">
<title>MedDreamCluster&#45;&gt;ApplicationVpc</title>
<path fill="none" stroke="black" d="M336.18,-107.7C331.37,-99.48 326.18,-90.61 321.16,-82.03"/>
<polygon fill="black" stroke="black" points="324.21,-80.31 316.14,-73.45 318.17,-83.85 324.21,-80.31"/>
</g>
<!-- MedDreamTaskDef -->
<g id="node6" class="node">
<title>MedDreamTaskDef</title>
<path fill="#b7e0ff" stroke="black" stroke-width="2" d="M568.95,-288C568.95,-288 402.69,-288 402.69,-288 396.69,-288 390.69,-282 390.69,-276 390.69,-276 390.69,-228 390.69,-228 390.69,-222 396.69,-216 402.69,-216 402.69,-216 568.95,-216 568.95,-216 574.95,-216 580.95,-222 580.95,-228 580.95,-228 580.95,-276 580.95,-276 580.95,-282 574.95,-288 568.95,-288"/>
<text text-anchor="middle" x="485.82" y="-256.2" font-family="Arial" font-size="14.00">MedDreamTaskDef</text>
<text text-anchor="middle" x="485.82" y="-239.4" font-family="Arial" font-size="14.00">(AWS::ECS::TaskDefinition)</text>
</g>
<!-- MedDreamTaskDef&#45;&gt;MedDreamCluster -->
<g id="edge7" class="edge">
<title>MedDreamTaskDef&#45;&gt;MedDreamCluster</title>
<path fill="none" stroke="black" d="M442.87,-215.7C431.77,-206.59 419.71,-196.68 408.23,-187.24"/>
<polygon fill="black" stroke="black" points="410.71,-184.75 400.76,-181.1 406.26,-190.16 410.71,-184.75"/>
</g>
<!-- MedDreamService -->
<g id="node7" class="node">
<title>MedDreamService</title>
<path fill="#b7e0ff" stroke="black" stroke-width="2" d="M437.94,-396C437.94,-396 313.7,-396 313.7,-396 307.7,-396 301.7,-390 301.7,-384 301.7,-384 301.7,-336 301.7,-336 301.7,-330 307.7,-324 313.7,-324 313.7,-324 437.94,-324 437.94,-324 443.94,-324 449.94,-330 449.94,-336 449.94,-336 449.94,-384 449.94,-384 449.94,-390 443.94,-396 437.94,-396"/>
<text text-anchor="middle" x="375.82" y="-364.2" font-family="Arial" font-size="14.00">MedDreamService</text>
<text text-anchor="middle" x="375.82" y="-347.4" font-family="Arial" font-size="14.00">(AWS::ECS::Service)</text>
</g>
<!-- MedDreamService&#45;&gt;EcsSecurityGroup -->
<g id="edge10" class="edge">
<title>MedDreamService&#45;&gt;EcsSecurityGroup</title>
<path fill="none" stroke="black" d="M330.54,-323.7C318.72,-314.5 305.88,-304.48 293.67,-294.97"/>
<polygon fill="black" stroke="black" points="296.14,-292.46 286.11,-289.07 291.84,-297.98 296.14,-292.46"/>
</g>
<!-- MedDreamService&#45;&gt;MedDreamCluster -->
<g id="edge8" class="edge">
<title>MedDreamService&#45;&gt;MedDreamCluster</title>
<path fill="none" stroke="black" d="M372.69,-323.66C369.48,-287.57 364.49,-231.36 360.96,-191.64"/>
<polygon fill="black" stroke="black" points="364.47,-191.55 360.1,-181.9 357.5,-192.17 364.47,-191.55"/>
</g>
<!-- MedDreamService&#45;&gt;MedDreamTaskDef -->
<g id="edge9" class="edge">
<title>MedDreamService&#45;&gt;MedDreamTaskDef</title>
<path fill="none" stroke="black" d="M412.45,-323.7C421.64,-314.85 431.59,-305.26 441.12,-296.08"/>
<polygon fill="black" stroke="black" points="443.49,-298.65 448.27,-289.19 438.64,-293.61 443.49,-298.65"/>
</g>
<!-- MedDreamLoadBalancer -->
<g id="node8" class="node">
<title>MedDreamLoadBalancer</title>
<path fill="#e78f81" stroke="black" stroke-width="2" d="M896.91,-288C896.91,-288 610.74,-288 610.74,-288 604.74,-288 598.74,-282 598.74,-276 598.74,-276 598.74,-228 598.74,-228 598.74,-222 604.74,-216 610.74,-216 610.74,-216 896.91,-216 896.91,-216 902.91,-216 908.91,-222 908.91,-228 908.91,-228 908.91,-276 908.91,-276 908.91,-282 902.91,-288 896.91,-288"/>
<text text-anchor="middle" x="753.82" y="-256.2" font-family="Arial" font-size="14.00">MedDreamLoadBalancer</text>
<text text-anchor="middle" x="753.82" y="-239.4" font-family="Arial" font-size="14.00">(AWS::ElasticLoadBalancingV2::LoadBalancer)</text>
</g>
<!-- MedDreamLoadBalancer&#45;&gt;ApplicationVpc -->
<g id="edge11" class="edge">
<title>MedDreamLoadBalancer&#45;&gt;ApplicationVpc</title>
<path fill="none" stroke="black" d="M736.99,-215.69C719.29,-182.51 688.23,-134.18 646.82,-108 562.62,-54.77 446.38,-40.33 370.92,-36.99"/>
<polygon fill="black" stroke="black" points="371.26,-33.5 361.14,-36.62 371,-40.5 371.26,-33.5"/>
</g>
<!-- MedDreamLoadBalancer&#45;&gt;AlbSecurityGroup -->
<g id="edge12" class="edge">
<title>MedDreamLoadBalancer&#45;&gt;AlbSecurityGroup</title>
<path fill="none" stroke="black" d="M683.27,-215.56C664.09,-205.92 643.17,-195.41 623.48,-185.52"/>
<polygon fill="black" stroke="black" points="625.17,-182.45 614.66,-181.09 622.03,-188.71 625.17,-182.45"/>
</g>
<!-- MedDreamDistribution -->
<g id="node9" class="node">
<title>MedDreamDistribution</title>
<path fill="#e78f81" stroke="black" stroke-width="2" d="M847.85,-396C847.85,-396 659.8,-396 659.8,-396 653.8,-396 647.8,-390 647.8,-384 647.8,-384 647.8,-336 647.8,-336 647.8,-330 653.8,-324 659.8,-324 659.8,-324 847.85,-324 847.85,-324 853.85,-324 859.85,-330 859.85,-336 859.85,-336 859.85,-384 859.85,-384 859.85,-390 853.85,-396 847.85,-396"/>
<text text-anchor="middle" x="753.82" y="-364.2" font-family="Arial" font-size="14.00">MedDreamDistribution</text>
<text text-anchor="middle" x="753.82" y="-347.4" font-family="Arial" font-size="14.00">(AWS::CloudFront::Distribution)</text>
</g>
<!-- MedDreamDistribution&#45;&gt;MedDreamLoadBalancer -->
<g id="edge13" class="edge">
<title>MedDreamDistribution&#45;&gt;MedDreamLoadBalancer</title>
<path fill="none" stroke="black" d="M753.82,-323.7C753.82,-315.93 753.82,-307.57 753.82,-299.43"/>
<polygon fill="black" stroke="black" points="757.32,-299.66 753.82,-289.66 750.32,-299.66 757.32,-299.66"/>
</g>
<!-- MedDreamUploaderSaticBucket -->
<g id="node10" class="node">
<title>MedDreamUploaderSaticBucket</title>
<path fill="#fff5cd" stroke="black" stroke-width="2" d="M929.81,-497.45C929.81,-501.07 881.41,-504 821.82,-504 762.24,-504 713.83,-501.07 713.83,-497.45 713.83,-497.45 713.83,-438.55 713.83,-438.55 713.83,-434.93 762.24,-432 821.82,-432 881.41,-432 929.81,-434.93 929.81,-438.55 929.81,-438.55 929.81,-497.45 929.81,-497.45"/>
<path fill="none" stroke="black" stroke-width="2" d="M929.81,-497.45C929.81,-493.84 881.41,-490.91 821.82,-490.91 762.24,-490.91 713.83,-493.84 713.83,-497.45"/>
<text text-anchor="middle" x="821.82" y="-472.2" font-family="Arial" font-size="14.00">MedDreamUploaderSaticBucket</text>
<text text-anchor="middle" x="821.82" y="-455.4" font-family="Arial" font-size="14.00">(AWS::S3::Bucket)</text>
</g>
<!-- MedDreamUploaderSaticBucket&#45;&gt;MedDreamDistribution -->
<g id="edge14" class="edge">
<title>MedDreamUploaderSaticBucket&#45;&gt;MedDreamDistribution</title>
<path fill="none" stroke="black" d="M799.18,-431.7C793.85,-423.39 788.09,-414.42 782.53,-405.75"/>
<polygon fill="black" stroke="black" points="785.53,-403.94 777.19,-397.42 779.64,-407.72 785.53,-403.94"/>
</g>
<!-- SessionValidator -->
<g id="node11" class="node">
<title>SessionValidator</title>
<path fill="#b7e0ff" stroke="black" stroke-width="2" d="M1360.35,-504C1360.35,-504 1207.29,-504 1207.29,-504 1201.29,-504 1195.29,-498 1195.29,-492 1195.29,-492 1195.29,-444 1195.29,-444 1195.29,-438 1201.29,-432 1207.29,-432 1207.29,-432 1360.35,-432 1360.35,-432 1366.35,-432 1372.35,-438 1372.35,-444 1372.35,-444 1372.35,-492 1372.35,-492 1372.35,-498 1366.35,-504 1360.35,-504"/>
<text text-anchor="middle" x="1283.82" y="-472.2" font-family="Arial" font-size="14.00">SessionValidator</text>
<text text-anchor="middle" x="1283.82" y="-455.4" font-family="Arial" font-size="14.00">(AWS::Lambda::Function)</text>
</g>
<!-- SessionValidatorAPI -->
<g id="node12" class="node">
<title>SessionValidatorAPI</title>
<path fill="#e78f81" stroke="black" stroke-width="2" d="M1370.46,-612C1370.46,-612 1197.19,-612 1197.19,-612 1191.19,-612 1185.19,-606 1185.19,-600 1185.19,-600 1185.19,-552 1185.19,-552 1185.19,-546 1191.19,-540 1197.19,-540 1197.19,-540 1370.46,-540 1370.46,-540 1376.46,-540 1382.46,-546 1382.46,-552 1382.46,-552 1382.46,-600 1382.46,-600 1382.46,-606 1376.46,-612 1370.46,-612"/>
<text text-anchor="middle" x="1283.82" y="-580.2" font-family="Arial" font-size="14.00">SessionValidatorAPI</text>
<text text-anchor="middle" x="1283.82" y="-563.4" font-family="Arial" font-size="14.00">(AWS::ApiGateway::RestApi)</text>
</g>
<!-- SessionValidatorAPI&#45;&gt;SessionValidator -->
<g id="edge15" class="edge">
<title>SessionValidatorAPI&#45;&gt;SessionValidator</title>
<path fill="none" stroke="black" d="M1283.82,-539.7C1283.82,-531.93 1283.82,-523.57 1283.82,-515.43"/>
<polygon fill="black" stroke="black" points="1287.32,-515.66 1283.82,-505.66 1280.32,-515.66 1287.32,-515.66"/>
</g>
<!-- HealthImagingSourceBucket -->
<g id="node13" class="node">
<title>HealthImagingSourceBucket</title>
<path fill="#fff5cd" stroke="black" stroke-width="2" d="M1596.54,-497.45C1596.54,-501.07 1553.19,-504 1499.82,-504 1446.46,-504 1403.11,-501.07 1403.11,-497.45 1403.11,-497.45 1403.11,-438.55 1403.11,-438.55 1403.11,-434.93 1446.46,-432 1499.82,-432 1553.19,-432 1596.54,-434.93 1596.54,-438.55 1596.54,-438.55 1596.54,-497.45 1596.54,-497.45"/>
<path fill="none" stroke="black" stroke-width="2" d="M1596.54,-497.45C1596.54,-493.84 1553.19,-490.91 1499.82,-490.91 1446.46,-490.91 1403.11,-493.84 1403.11,-497.45"/>
<text text-anchor="middle" x="1499.82" y="-472.2" font-family="Arial" font-size="14.00">HealthImagingSourceBucket</text>
<text text-anchor="middle" x="1499.82" y="-455.4" font-family="Arial" font-size="14.00">(AWS::S3::Bucket)</text>
</g>
<!-- HealthImagingOutputBucket -->
<g id="node14" class="node">
<title>HealthImagingOutputBucket</title>
<path fill="#fff5cd" stroke="black" stroke-width="2" d="M1805.38,-497.45C1805.38,-501.07 1762.55,-504 1709.82,-504 1657.1,-504 1614.27,-501.07 1614.27,-497.45 1614.27,-497.45 1614.27,-438.55 1614.27,-438.55 1614.27,-434.93 1657.1,-432 1709.82,-432 1762.55,-432 1805.38,-434.93 1805.38,-438.55 1805.38,-438.55 1805.38,-497.45 1805.38,-497.45"/>
<path fill="none" stroke="black" stroke-width="2" d="M1805.38,-497.45C1805.38,-493.84 1762.55,-490.91 1709.82,-490.91 1657.1,-490.91 1614.27,-493.84 1614.27,-497.45"/>
<text text-anchor="middle" x="1709.82" y="-472.2" font-family="Arial" font-size="14.00">HealthImagingOutputBucket</text>
<text text-anchor="middle" x="1709.82" y="-455.4" font-family="Arial" font-size="14.00">(AWS::S3::Bucket)</text>
</g>
<!-- HealthImagingDatastore -->
<g id="node15" class="node">
<title>HealthImagingDatastore</title>
<path fill="#fff5cd" stroke="black" stroke-width="2" d="M1624.7,-605.45C1624.7,-609.07 1574.55,-612 1512.82,-612 1451.09,-612 1400.95,-609.07 1400.95,-605.45 1400.95,-605.45 1400.95,-546.55 1400.95,-546.55 1400.95,-542.93 1451.09,-540 1512.82,-540 1574.55,-540 1624.7,-542.93 1624.7,-546.55 1624.7,-546.55 1624.7,-605.45 1624.7,-605.45"/>
<path fill="none" stroke="black" stroke-width="2" d="M1624.7,-605.45C1624.7,-601.84 1574.55,-598.91 1512.82,-598.91 1451.09,-598.91 1400.95,-601.84 1400.95,-605.45"/>
<text text-anchor="middle" x="1512.82" y="-580.2" font-family="Arial" font-size="14.00">HealthImagingDatastore</text>
<text text-anchor="middle" x="1512.82" y="-563.4" font-family="Arial" font-size="14.00">(AWS::HealthImaging::Datastore)</text>
</g>
<!-- HealthImagingDatastore&#45;&gt;HealthImagingSourceBucket -->
<g id="edge16" class="edge">
<title>HealthImagingDatastore&#45;&gt;HealthImagingSourceBucket</title>
<path fill="none" stroke="black" d="M1508.49,-539.7C1507.54,-531.93 1506.52,-523.57 1505.52,-515.43"/>
<polygon fill="black" stroke="black" points="1509.01,-515.14 1504.32,-505.64 1502.06,-516 1509.01,-515.14"/>
</g>
<!-- HealthImagingDatastore&#45;&gt;HealthImagingOutputBucket -->
<g id="edge17" class="edge">
<title>HealthImagingDatastore&#45;&gt;HealthImagingOutputBucket</title>
<path fill="none" stroke="black" d="M1578.15,-539.85C1596.47,-529.99 1616.53,-519.2 1635.34,-509.08"/>
<polygon fill="black" stroke="black" points="1636.87,-512.23 1644.01,-504.41 1633.55,-506.07 1636.87,-512.23"/>
</g>
<!-- RedisCluster -->
<g id="node16" class="node">
<title>RedisCluster</title>
<path fill="#ffcfb3" stroke="black" stroke-width="2" d="M255.65,-497.45C255.65,-501.07 198.35,-504 127.82,-504 57.29,-504 0,-501.07 0,-497.45 0,-497.45 0,-438.55 0,-438.55 0,-434.93 57.29,-432 127.82,-432 198.35,-432 255.65,-434.93 255.65,-438.55 255.65,-438.55 255.65,-497.45 255.65,-497.45"/>
<path fill="none" stroke="black" stroke-width="2" d="M255.65,-497.45C255.65,-493.84 198.35,-490.91 127.82,-490.91 57.29,-490.91 0,-493.84 0,-497.45"/>
<text text-anchor="middle" x="127.82" y="-472.2" font-family="Arial" font-size="14.00">RedisCluster</text>
<text text-anchor="middle" x="127.82" y="-455.4" font-family="Arial" font-size="14.00">(AWS::ElastiCache::ReplicationGroup)</text>
</g>
<!-- RedisCluster&#45;&gt;ApplicationVpc -->
<g id="edge18" class="edge">
<title>RedisCluster&#45;&gt;ApplicationVpc</title>
<path fill="none" stroke="black" d="M101.2,-431.55C94.52,-420.7 88.27,-408.35 84.82,-396 49.54,-269.61 64.9,-208.03 149.82,-108 168.08,-86.5 194.39,-70.93 219.6,-59.95"/>
<polygon fill="black" stroke="black" points="220.64,-63.31 228.54,-56.25 217.96,-56.84 220.64,-63.31"/>
</g>
<!-- RedisCluster&#45;&gt;EfsSecurityGroup -->
<g id="edge19" class="edge">
<title>RedisCluster&#45;&gt;EfsSecurityGroup</title>
<path fill="none" stroke="black" d="M148.14,-431.7C152.87,-423.48 157.97,-414.61 162.91,-406.03"/>
<polygon fill="black" stroke="black" points="165.89,-407.87 167.85,-397.45 159.82,-404.38 165.89,-407.87"/>
</g>
<!-- MedDreamUploaderSourceBucket -->
<g id="node17" class="node">
<title>MedDreamUploaderSourceBucket</title>
<path fill="#fff5cd" stroke="black" stroke-width="2" d="M1177.43,-497.45C1177.43,-501.07 1126.06,-504 1062.82,-504 999.59,-504 948.22,-501.07 948.22,-497.45 948.22,-497.45 948.22,-438.55 948.22,-438.55 948.22,-434.93 999.59,-432 1062.82,-432 1126.06,-432 1177.43,-434.93 1177.43,-438.55 1177.43,-438.55 1177.43,-497.45 1177.43,-497.45"/>
<path fill="none" stroke="black" stroke-width="2" d="M1177.43,-497.45C1177.43,-493.84 1126.06,-490.91 1062.82,-490.91 999.59,-490.91 948.22,-493.84 948.22,-497.45"/>
<text text-anchor="middle" x="1062.82" y="-472.2" font-family="Arial" font-size="14.00">MedDreamUploaderSourceBucket</text>
<text text-anchor="middle" x="1062.82" y="-455.4" font-family="Arial" font-size="14.00">(AWS::S3::Bucket)</text>
</g>
<!-- MedDreamUploaderArtifactBucket -->
<g id="node18" class="node">
<title>MedDreamUploaderArtifactBucket</title>
<path fill="#fff5cd" stroke="black" stroke-width="2" d="M658.03,-497.45C658.03,-501.07 606.84,-504 543.82,-504 480.8,-504 429.61,-501.07 429.61,-497.45 429.61,-497.45 429.61,-438.55 429.61,-438.55 429.61,-434.93 480.8,-432 543.82,-432 606.84,-432 658.03,-434.93 658.03,-438.55 658.03,-438.55 658.03,-497.45 658.03,-497.45"/>
<path fill="none" stroke="black" stroke-width="2" d="M658.03,-497.45C658.03,-493.84 606.84,-490.91 543.82,-490.91 480.8,-490.91 429.61,-493.84 429.61,-497.45"/>
<text text-anchor="middle" x="543.82" y="-472.2" font-family="Arial" font-size="14.00">MedDreamUploaderArtifactBucket</text>
<text text-anchor="middle" x="543.82" y="-455.4" font-family="Arial" font-size="14.00">(AWS::S3::Bucket)</text>
</g>
<!-- MedDreamUploaderReactPipeline -->
<g id="node19" class="node">
<title>MedDreamUploaderReactPipeline</title>
<path fill="#e6e6e6" stroke="black" stroke-width="2" d="M856.04,-612C856.04,-612 651.6,-612 651.6,-612 645.6,-612 639.6,-606 639.6,-600 639.6,-600 639.6,-552 639.6,-552 639.6,-546 645.6,-540 651.6,-540 651.6,-540 856.04,-540 856.04,-540 862.04,-540 868.04,-546 868.04,-552 868.04,-552 868.04,-600 868.04,-600 868.04,-606 862.04,-612 856.04,-612"/>
<text text-anchor="middle" x="753.82" y="-580.2" font-family="Arial" font-size="14.00">MedDreamUploaderReactPipeline</text>
<text text-anchor="middle" x="753.82" y="-563.4" font-family="Arial" font-size="14.00">(AWS::CodePipeline::Pipeline)</text>
</g>
<!-- MedDreamUploaderReactPipeline&#45;&gt;MedDreamDistribution -->
<g id="edge23" class="edge">
<title>MedDreamUploaderReactPipeline&#45;&gt;MedDreamDistribution</title>
<path fill="none" stroke="black" d="M723.28,-539.66C715.76,-528.9 708.74,-516.58 704.82,-504 695.3,-473.45 695.3,-462.55 704.82,-432 707.64,-422.96 712.06,-414.05 717.11,-405.76"/>
<polygon fill="black" stroke="black" points="719.9,-407.89 722.45,-397.61 714.04,-404.06 719.9,-407.89"/>
</g>
<!-- MedDreamUploaderReactPipeline&#45;&gt;MedDreamUploaderSaticBucket -->
<g id="edge22" class="edge">
<title>MedDreamUploaderReactPipeline&#45;&gt;MedDreamUploaderSaticBucket</title>
<path fill="none" stroke="black" d="M776.47,-539.7C781.8,-531.39 787.55,-522.42 793.12,-513.75"/>
<polygon fill="black" stroke="black" points="796.01,-515.72 798.46,-505.42 790.12,-511.94 796.01,-515.72"/>
</g>
<!-- MedDreamUploaderReactPipeline&#45;&gt;MedDreamUploaderSourceBucket -->
<g id="edge20" class="edge">
<title>MedDreamUploaderReactPipeline&#45;&gt;MedDreamUploaderSourceBucket</title>
<path fill="none" stroke="black" d="M857.15,-539.56C888.43,-528.82 922.88,-517.01 954.49,-506.16"/>
<polygon fill="black" stroke="black" points="955.34,-509.57 963.66,-503.02 953.06,-502.95 955.34,-509.57"/>
</g>
<!-- MedDreamUploaderReactPipeline&#45;&gt;MedDreamUploaderArtifactBucket -->
<g id="edge21" class="edge">
<title>MedDreamUploaderReactPipeline&#45;&gt;MedDreamUploaderArtifactBucket</title>
<path fill="none" stroke="black" d="M683.6,-539.56C664.31,-529.82 643.26,-519.19 623.47,-509.2"/>
<polygon fill="black" stroke="black" points="625.12,-506.11 614.61,-504.73 621.96,-512.36 625.12,-506.11"/>
</g>
</g>
</svg>
